<svg xmlns="http://www.w3.org/2000/svg" width="1200" height="300" viewBox="0 0 1200 300" fill="none">
  <g transform="translate(10,10)">
    <path d="M110 190 C70 190 40 160 40 122 C40 84 69 58 107 58 C113 24 144 0 182 0 C219 0 251 24 257 58 C288 58 314 82 314 112 C314 144 288 168 257 168" stroke="#072c7a" stroke-width="12" stroke-linecap="round" stroke-linejoin="round"/>
    <path d="M130 58 h100 l34 34 v155 h-134 z" stroke="#072c7a" stroke-width="12" stroke-linejoin="round"/>
    <path d="M230 58 v42 h34" stroke="#072c7a" stroke-width="12" stroke-linejoin="round"/>
    <line x1="155" y1="102" x2="205" y2="102" stroke="#1e88f3" stroke-width="10" stroke-linecap="round"/>
    <line x1="155" y1="132" x2="205" y2="132" stroke="#1e88f3" stroke-width="10" stroke-linecap="round"/>
    <line x1="155" y1="162" x2="205" y2="162" stroke="#1e88f3" stroke-width="10" stroke-linecap="round"/>
    <rect x="160" y="206" width="26" height="42" rx="4" fill="#1bc3b1"/>
    <rect x="198" y="180" width="26" height="68" rx="4" fill="#1bc3b1"/>
    <rect x="236" y="152" width="26" height="96" rx="4" fill="#1bc3b1"/>
    <circle cx="255" cy="205" r="40" stroke="#1bc3b1" stroke-width="12" fill="none"/>
    <path d="M238 205 l12 12 22 -24" stroke="#1bc3b1" stroke-width="12" stroke-linecap="round" stroke-linejoin="round"/>
  </g>
  <g font-family="Arial, Helvetica, sans-serif" font-weight="700">
    <text x="375" y="210" font-size="190" fill="#072c7a">F</text>
    <text x="525" y="210" font-size="190" fill="#1e88f3">A</text>
    <text x="690" y="210" font-size="190" fill="#072c7a">C</text>
  </g>
  <g font-family="Arial, Helvetica, sans-serif" font-size="54" fill="#072c7a">
    <text x="385" y="268">Fast</text>
    <text x="535" y="268">Accounting</text>
    <text x="830" y="268" fill="#1bc3b1">&amp;</text>
    <text x="890" y="268">Control</text>
  </g>
</svg>